<svg viewBox="0 0 100 100" xmlns="http://www.w3.org/2000/svg">
  <defs>
    <linearGradient id="dp-sky" x1="0" y1="0" x2="0" y2="1">
      <stop offset="0%" stop-color="#081120"/>
      <stop offset="38%" stop-color="#112A46"/>
      <stop offset="72%" stop-color="#1C3E5A"/>
      <stop offset="100%" stop-color="#2B4A5E"/>
    </linearGradient>
    <radialGradient id="dp-glow" cx="0.5" cy="0.74" r="0.62">
      <stop offset="0%" stop-color="#FFCF63" stop-opacity="0.92"/>
      <stop offset="26%" stop-color="#F6990F" stop-opacity="0.52"/>
      <stop offset="58%" stop-color="#DB5A0C" stop-opacity="0.16"/>
      <stop offset="100%" stop-color="#DB5A0C" stop-opacity="0"/>
    </radialGradient>
    <linearGradient id="dp-gold" x1="30" y1="24" x2="72" y2="88" gradientUnits="userSpaceOnUse">
      <stop offset="0%" stop-color="#FFF1D2"/>
      <stop offset="30%" stop-color="#FFCB5C"/>
      <stop offset="64%" stop-color="#F6A526"/>
      <stop offset="100%" stop-color="#DE7A10"/>
    </linearGradient>
    <linearGradient id="dp-ridge" x1="0" y1="0" x2="0" y2="1">
      <stop offset="0%" stop-color="#0B1D31"/>
      <stop offset="100%" stop-color="#08131F"/>
    </linearGradient>
    <filter id="dp-shadow" x="-30%" y="-30%" width="160%" height="160%">
      <feDropShadow dx="0" dy="1.7" stdDeviation="1.9" flood-color="#04101E" flood-opacity="0.6"/>
    </filter>
  </defs>

  <rect width="100" height="100" fill="url(#dp-sky)"/>
  <rect width="100" height="100" fill="url(#dp-glow)"/>

  <path d="M0,76 L18,70 L33,73.5 L50,67 L67,72.5 L83,68 L100,73.5 L100,101 L0,101 Z" fill="url(#dp-ridge)"/>
  <path d="M0,76 L18,70 L33,73.5 L50,67 L67,72.5 L83,68 L100,73.5" fill="none" stroke="#F6990F" stroke-opacity="0.30" stroke-width="0.7" stroke-linejoin="round"/>

  <g filter="url(#dp-shadow)" fill="none" stroke="url(#dp-gold)" stroke-linecap="round" stroke-linejoin="round">
    <path d="M12,27 Q50,36.5 88,27" stroke-width="2.4"/>
    <path d="M50,34 L49,49" stroke-width="2.8"/>
    <path d="M45.5,48 L45.5,66.5 L67,66.5" stroke-width="3.9"/>
    <path d="M63.5,66.5 L64,74" stroke-width="3"/>
    <path d="M43,74.5 L66,73.6 Q72.2,73.1 71,69.4" stroke-width="2.7"/>
    <path d="M43,78.2 L66,77.3 Q72.2,76.8 71,73.1" stroke-width="2.7"/>
  </g>

  <circle cx="50" cy="34" r="2.5" fill="url(#dp-gold)" filter="url(#dp-shadow)"/>

  <g filter="url(#dp-shadow)" fill="url(#dp-gold)">
    <circle cx="55.5" cy="52.5" r="4.7"/>
    <path d="M51.4,57.2 C49.9,60.4 49.9,63.8 50.6,66.2 L60.7,66.2 C61.4,63.4 61.2,59.9 59.9,57.2 C58,55.4 53.2,55.4 51.4,57.2 Z"/>
    <path d="M58.8,64.4 L64.8,71.5 Q66,73 64.2,74 Q62.6,74.6 61.7,73.2 L56.4,66.6 Z"/>
  </g>

  <path d="M12,27 Q50,36.5 88,27" fill="none" stroke="#FFF3D6" stroke-opacity="0.42" stroke-width="0.7" stroke-linecap="round"/>
</svg>